<mxfile host="app.diagrams.net" modified="2021-12-17T08:18:15.063Z" agent="5.0 (Windows NT 10.0; Win64; x64) AppleWebKit/537.36 (KHTML, like Gecko) Chrome/98.0.4758.10 Safari/537.36" etag="jFsQ8KJClJZNr3V_zXK2" version="15.9.6" type="github">
  <diagram name="Page-1" id="e7e014a7-5840-1c2e-5031-d8a46d1fe8dd">
    <mxGraphModel dx="1422" dy="762" grid="1" gridSize="10" guides="1" tooltips="1" connect="1" arrows="1" fold="1" page="1" pageScale="1" pageWidth="1169" pageHeight="826" background="none" math="0" shadow="0">
      <root>
        <mxCell id="0" />
        <mxCell id="1" parent="0" />
        <mxCell id="2" value="User" style="swimlane;whiteSpace=wrap" parent="1" vertex="1">
          <mxGeometry x="164.5" y="128" width="280" height="912" as="geometry" />
        </mxCell>
        <mxCell id="5" value="" style="ellipse;shape=startState;fillColor=#000000;strokeColor=#ff0000;" parent="2" vertex="1">
          <mxGeometry x="100" y="40" width="30" height="30" as="geometry" />
        </mxCell>
        <mxCell id="6" value="" style="edgeStyle=elbowEdgeStyle;elbow=horizontal;verticalAlign=bottom;endArrow=open;endSize=8;strokeColor=#FF0000;endFill=1;rounded=0" parent="2" source="5" target="7" edge="1">
          <mxGeometry x="100" y="40" as="geometry">
            <mxPoint x="115" y="110" as="targetPoint" />
          </mxGeometry>
        </mxCell>
        <mxCell id="7" value="idle" style="" parent="2" vertex="1">
          <mxGeometry x="60" y="110" width="110" height="50" as="geometry" />
        </mxCell>
        <mxCell id="8" value="upload or capture source" style="" parent="2" vertex="1">
          <mxGeometry x="40" y="220" width="150" height="50" as="geometry" />
        </mxCell>
        <mxCell id="9" value="" style="endArrow=open;strokeColor=#FF0000;endFill=1;rounded=0" parent="2" source="7" target="8" edge="1">
          <mxGeometry relative="1" as="geometry" />
        </mxCell>
        <mxCell id="10" value="send to agent" style="" parent="2" vertex="1">
          <mxGeometry x="60" y="325" width="110" height="50" as="geometry" />
        </mxCell>
        <mxCell id="11" value="" style="endArrow=open;strokeColor=#FF0000;endFill=1;rounded=0" parent="2" source="8" target="10" edge="1">
          <mxGeometry relative="1" as="geometry" />
        </mxCell>
        <mxCell id="3" value="Agent" style="swimlane;whiteSpace=wrap" parent="1" vertex="1">
          <mxGeometry x="444.5" y="128" width="555.5" height="912" as="geometry" />
        </mxCell>
        <mxCell id="16" value="check for &#xa;new commands" style="" parent="3" vertex="1">
          <mxGeometry x="20" y="322" width="110" height="50" as="geometry" />
        </mxCell>
        <mxCell id="19" value="" style="endArrow=open;strokeColor=#FF0000;endFill=1;rounded=0" parent="3" source="16" edge="1">
          <mxGeometry relative="1" as="geometry">
            <mxPoint x="75" y="325" as="targetPoint" />
          </mxGeometry>
        </mxCell>
        <mxCell id="GTZNmrSL_PvrEvCJ2HKf-42" value="" style="rhombus;whiteSpace=wrap;html=1;" parent="3" vertex="1">
          <mxGeometry x="175.5" y="324.5" width="40.5" height="45" as="geometry" />
        </mxCell>
        <mxCell id="GTZNmrSL_PvrEvCJ2HKf-43" value="" style="edgeStyle=orthogonalEdgeStyle;rounded=0;orthogonalLoop=1;jettySize=auto;html=1;fillColor=#f8cecc;strokeColor=#B8200F;" parent="3" source="16" target="GTZNmrSL_PvrEvCJ2HKf-42" edge="1">
          <mxGeometry relative="1" as="geometry" />
        </mxCell>
        <mxCell id="GTZNmrSL_PvrEvCJ2HKf-46" value="identified" style="text;html=1;strokeColor=none;fillColor=none;align=center;verticalAlign=middle;whiteSpace=wrap;rounded=0;" parent="3" vertex="1">
          <mxGeometry x="205.5" y="392" width="60" height="30" as="geometry" />
        </mxCell>
        <mxCell id="GTZNmrSL_PvrEvCJ2HKf-52" value="else" style="text;html=1;strokeColor=none;fillColor=none;align=center;verticalAlign=middle;whiteSpace=wrap;rounded=0;" parent="3" vertex="1">
          <mxGeometry x="205.5" y="312" width="60" height="30" as="geometry" />
        </mxCell>
        <mxCell id="GTZNmrSL_PvrEvCJ2HKf-57" value="" style="html=1;points=[];perimeter=orthogonalPerimeter;fillColor=#F83620;strokeColor=#b85450;direction=west;" parent="3" vertex="1">
          <mxGeometry x="265.5" y="307" width="8" height="80" as="geometry" />
        </mxCell>
        <mxCell id="GTZNmrSL_PvrEvCJ2HKf-51" value="" style="edgeStyle=orthogonalEdgeStyle;rounded=0;orthogonalLoop=1;jettySize=auto;html=1;strokeColor=#B8200F;entryX=1;entryY=0.506;entryDx=0;entryDy=0;entryPerimeter=0;" parent="3" source="GTZNmrSL_PvrEvCJ2HKf-42" target="GTZNmrSL_PvrEvCJ2HKf-57" edge="1">
          <mxGeometry relative="1" as="geometry">
            <mxPoint x="265" y="252" as="targetPoint" />
          </mxGeometry>
        </mxCell>
        <mxCell id="GTZNmrSL_PvrEvCJ2HKf-48" value="check for disease&lt;br&gt;type" style="whiteSpace=wrap;html=1;" parent="3" vertex="1">
          <mxGeometry x="135.75" y="442" width="120" height="60" as="geometry" />
        </mxCell>
        <mxCell id="GTZNmrSL_PvrEvCJ2HKf-49" value="" style="edgeStyle=orthogonalEdgeStyle;rounded=0;orthogonalLoop=1;jettySize=auto;html=1;strokeColor=#B8200F;" parent="3" source="GTZNmrSL_PvrEvCJ2HKf-42" target="GTZNmrSL_PvrEvCJ2HKf-48" edge="1">
          <mxGeometry relative="1" as="geometry" />
        </mxCell>
        <mxCell id="GTZNmrSL_PvrEvCJ2HKf-65" style="edgeStyle=orthogonalEdgeStyle;rounded=0;orthogonalLoop=1;jettySize=auto;html=1;entryX=1.25;entryY=0.675;entryDx=0;entryDy=0;entryPerimeter=0;strokeColor=#B8200F;strokeWidth=1;" parent="3" source="GTZNmrSL_PvrEvCJ2HKf-59" target="GTZNmrSL_PvrEvCJ2HKf-64" edge="1">
          <mxGeometry relative="1" as="geometry" />
        </mxCell>
        <mxCell id="GTZNmrSL_PvrEvCJ2HKf-59" value="save uploaded source to database" style="whiteSpace=wrap;html=1;strokeColor=#000000;fillColor=default;" parent="3" vertex="1">
          <mxGeometry x="335.5" y="272" width="120" height="60" as="geometry" />
        </mxCell>
        <mxCell id="GTZNmrSL_PvrEvCJ2HKf-66" style="edgeStyle=orthogonalEdgeStyle;rounded=0;orthogonalLoop=1;jettySize=auto;html=1;entryX=1.25;entryY=0.388;entryDx=0;entryDy=0;entryPerimeter=0;strokeColor=#B8200F;strokeWidth=1;" parent="3" source="GTZNmrSL_PvrEvCJ2HKf-61" target="GTZNmrSL_PvrEvCJ2HKf-64" edge="1">
          <mxGeometry relative="1" as="geometry" />
        </mxCell>
        <mxCell id="GTZNmrSL_PvrEvCJ2HKf-61" value="prompt error message" style="whiteSpace=wrap;html=1;" parent="3" vertex="1">
          <mxGeometry x="335.5" y="352" width="120" height="60" as="geometry" />
        </mxCell>
        <mxCell id="GTZNmrSL_PvrEvCJ2HKf-62" value="" style="edgeStyle=orthogonalEdgeStyle;rounded=0;orthogonalLoop=1;jettySize=auto;html=1;strokeColor=#B8200F;strokeWidth=1;" parent="3" source="GTZNmrSL_PvrEvCJ2HKf-57" target="GTZNmrSL_PvrEvCJ2HKf-61" edge="1">
          <mxGeometry relative="1" as="geometry" />
        </mxCell>
        <mxCell id="GTZNmrSL_PvrEvCJ2HKf-64" value="" style="html=1;points=[];perimeter=orthogonalPerimeter;fillColor=#F83620;strokeColor=#b85450;direction=west;" parent="3" vertex="1">
          <mxGeometry x="495.5" y="307" width="8" height="80" as="geometry" />
        </mxCell>
        <mxCell id="GTZNmrSL_PvrEvCJ2HKf-67" value="" style="rhombus;whiteSpace=wrap;html=1;" parent="3" vertex="1">
          <mxGeometry x="175.5" y="552" width="39.75" height="40" as="geometry" />
        </mxCell>
        <mxCell id="GTZNmrSL_PvrEvCJ2HKf-68" value="" style="edgeStyle=orthogonalEdgeStyle;rounded=0;orthogonalLoop=1;jettySize=auto;html=1;strokeColor=#B8200F;strokeWidth=1;" parent="3" source="GTZNmrSL_PvrEvCJ2HKf-48" target="GTZNmrSL_PvrEvCJ2HKf-67" edge="1">
          <mxGeometry relative="1" as="geometry" />
        </mxCell>
        <mxCell id="GTZNmrSL_PvrEvCJ2HKf-71" value="affected" style="text;html=1;strokeColor=none;fillColor=none;align=center;verticalAlign=middle;whiteSpace=wrap;rounded=0;" parent="3" vertex="1">
          <mxGeometry x="213.5" y="612" width="60" height="30" as="geometry" />
        </mxCell>
        <mxCell id="GTZNmrSL_PvrEvCJ2HKf-75" value="not affected" style="text;html=1;strokeColor=none;fillColor=none;align=center;verticalAlign=middle;whiteSpace=wrap;rounded=0;" parent="3" vertex="1">
          <mxGeometry x="5.5" y="632" width="60" height="30" as="geometry" />
        </mxCell>
        <mxCell id="GTZNmrSL_PvrEvCJ2HKf-78" value="" style="ellipse;html=1;shape=endState;fillColor=#000000;strokeColor=#ff0000;" parent="3" vertex="1">
          <mxGeometry x="495.5" y="817" width="30" height="30" as="geometry" />
        </mxCell>
        <mxCell id="20" value="" style="endArrow=open;strokeColor=#FF0000;endFill=1;rounded=0" parent="1" source="10" edge="1">
          <mxGeometry relative="1" as="geometry">
            <mxPoint x="464.5" y="478" as="targetPoint" />
          </mxGeometry>
        </mxCell>
        <mxCell id="GTZNmrSL_PvrEvCJ2HKf-60" value="" style="edgeStyle=orthogonalEdgeStyle;rounded=0;orthogonalLoop=1;jettySize=auto;html=1;strokeColor=#B8200F;strokeWidth=1;" parent="1" target="GTZNmrSL_PvrEvCJ2HKf-59" edge="1">
          <mxGeometry relative="1" as="geometry">
            <mxPoint x="720" y="460" as="sourcePoint" />
          </mxGeometry>
        </mxCell>
        <mxCell id="GTZNmrSL_PvrEvCJ2HKf-63" style="edgeStyle=orthogonalEdgeStyle;rounded=0;orthogonalLoop=1;jettySize=auto;html=1;entryX=1;entryY=0.5;entryDx=0;entryDy=0;strokeColor=#B8200F;strokeWidth=1;exitX=0.125;exitY=0.525;exitDx=0;exitDy=0;exitPerimeter=0;" parent="1" source="GTZNmrSL_PvrEvCJ2HKf-64" target="7" edge="1">
          <mxGeometry relative="1" as="geometry">
            <Array as="points">
              <mxPoint x="960" y="473" />
              <mxPoint x="960" y="263" />
            </Array>
          </mxGeometry>
        </mxCell>
        <mxCell id="GTZNmrSL_PvrEvCJ2HKf-73" value="" style="edgeStyle=orthogonalEdgeStyle;rounded=0;orthogonalLoop=1;jettySize=auto;html=1;strokeColor=#B8200F;strokeWidth=1;" parent="1" source="GTZNmrSL_PvrEvCJ2HKf-69" target="GTZNmrSL_PvrEvCJ2HKf-72" edge="1">
          <mxGeometry relative="1" as="geometry" />
        </mxCell>
        <mxCell id="GTZNmrSL_PvrEvCJ2HKf-69" value="identify disease" style="whiteSpace=wrap;html=1;" parent="1" vertex="1">
          <mxGeometry x="579.875" y="790" width="120" height="60" as="geometry" />
        </mxCell>
        <mxCell id="GTZNmrSL_PvrEvCJ2HKf-70" value="" style="edgeStyle=orthogonalEdgeStyle;rounded=0;orthogonalLoop=1;jettySize=auto;html=1;strokeColor=#B8200F;strokeWidth=1;" parent="1" source="GTZNmrSL_PvrEvCJ2HKf-67" target="GTZNmrSL_PvrEvCJ2HKf-69" edge="1">
          <mxGeometry relative="1" as="geometry" />
        </mxCell>
        <mxCell id="GTZNmrSL_PvrEvCJ2HKf-77" value="" style="edgeStyle=orthogonalEdgeStyle;rounded=0;orthogonalLoop=1;jettySize=auto;html=1;strokeColor=#B8200F;strokeWidth=1;" parent="1" source="GTZNmrSL_PvrEvCJ2HKf-72" target="GTZNmrSL_PvrEvCJ2HKf-76" edge="1">
          <mxGeometry relative="1" as="geometry" />
        </mxCell>
        <mxCell id="GTZNmrSL_PvrEvCJ2HKf-72" value="prepare dashboard" style="whiteSpace=wrap;html=1;" parent="1" vertex="1">
          <mxGeometry x="579.875" y="930" width="120" height="60" as="geometry" />
        </mxCell>
        <mxCell id="GTZNmrSL_PvrEvCJ2HKf-74" style="edgeStyle=orthogonalEdgeStyle;rounded=0;orthogonalLoop=1;jettySize=auto;html=1;entryX=0;entryY=0.5;entryDx=0;entryDy=0;strokeColor=#B8200F;strokeWidth=1;" parent="1" source="GTZNmrSL_PvrEvCJ2HKf-67" target="GTZNmrSL_PvrEvCJ2HKf-72" edge="1">
          <mxGeometry relative="1" as="geometry">
            <Array as="points">
              <mxPoint x="520" y="700" />
              <mxPoint x="520" y="960" />
            </Array>
          </mxGeometry>
        </mxCell>
        <mxCell id="GTZNmrSL_PvrEvCJ2HKf-79" style="edgeStyle=orthogonalEdgeStyle;rounded=0;orthogonalLoop=1;jettySize=auto;html=1;strokeColor=#B8200F;strokeWidth=1;" parent="1" source="GTZNmrSL_PvrEvCJ2HKf-76" target="GTZNmrSL_PvrEvCJ2HKf-78" edge="1">
          <mxGeometry relative="1" as="geometry" />
        </mxCell>
        <mxCell id="GTZNmrSL_PvrEvCJ2HKf-76" value="detailed dashboard" style="whiteSpace=wrap;html=1;" parent="1" vertex="1">
          <mxGeometry x="779.875" y="930" width="120" height="60" as="geometry" />
        </mxCell>
      </root>
    </mxGraphModel>
  </diagram>
</mxfile>
